REM DIRINDEX 1\2,1\3,1\4,1\5
REM DIRNAME folder01,folder02,folder03,folder04,folder05
TITLE ""
FILE "P1Q_t_0152-0161.mp3" MP3
  TRACK 01 AUDIO
    TITLE "3:cjc005_1357"
    INDEX 01 00:00:00
  TRACK 02 AUDIO
    TITLE "0:"
    INDEX 01 00:00:72
  TRACK 03 AUDIO
    TITLE "4:cjc005_1358"
    INDEX 01 00:01:28
  TRACK 04 AUDIO
    TITLE "0:"
    INDEX 01 00:02:43
  TRACK 05 AUDIO
    TITLE "5:cjc005_1359"
    INDEX 01 00:02:65
  TRACK 06 AUDIO
    TITLE "0:"
    INDEX 01 00:07:47
  TRACK 07 AUDIO
    TITLE "3:cjc005_1360"
    INDEX 01 00:08:26
  TRACK 08 AUDIO
    TITLE "0:"
    INDEX 01 00:09:30
  TRACK 09 AUDIO
    TITLE "4:cjc005_1361"
    INDEX 01 00:09:55
  TRACK 10 AUDIO
    TITLE "0:"
    INDEX 01 00:10:72
  TRACK 11 AUDIO
    TITLE "5:cjc005_1362"
    INDEX 01 00:11:15
  TRACK 12 AUDIO
    TITLE "0:"
    INDEX 01 00:15:50
  TRACK 13 AUDIO
    TITLE "3:cjc005_1363"
    INDEX 01 00:16:26
  TRACK 14 AUDIO
    TITLE "0:"
    INDEX 01 00:17:59
  TRACK 15 AUDIO
    TITLE "4:cjc005_1364"
    INDEX 01 00:18:15
  TRACK 16 AUDIO
    TITLE "0:"
    INDEX 01 00:19:28
  TRACK 17 AUDIO
    TITLE "5:cjc005_1365"
    INDEX 01 00:19:56
  TRACK 18 AUDIO
    TITLE "0:"
    INDEX 01 00:24:53
  TRACK 19 AUDIO
    TITLE "3:cjc005_1366"
    INDEX 01 00:25:29
  TRACK 20 AUDIO
    TITLE "0:"
    INDEX 01 00:26:48
  TRACK 21 AUDIO
    TITLE "4:cjc005_1367"
    INDEX 01 00:27:02
  TRACK 22 AUDIO
    TITLE "0:"
    INDEX 01 00:28:00
  TRACK 23 AUDIO
    TITLE "5:cjc005_1368"
    INDEX 01 00:28:27
  TRACK 24 AUDIO
    TITLE "0:"
    INDEX 01 00:33:26
  TRACK 25 AUDIO
    TITLE "3:cjc005_1369"
    INDEX 01 00:34:10
  TRACK 26 AUDIO
    TITLE "0:"
    INDEX 01 00:35:21
  TRACK 27 AUDIO
    TITLE "4:cjc005_1370"
    INDEX 01 00:35:47
  TRACK 28 AUDIO
    TITLE "0:"
    INDEX 01 00:37:03
  TRACK 29 AUDIO
    TITLE "5:cjc005_1371"
    INDEX 01 00:37:30
  TRACK 30 AUDIO
    TITLE "0:"
    INDEX 01 00:41:02
  TRACK 31 AUDIO
    TITLE "3:cjc005_1372"
    INDEX 01 00:41:53
  TRACK 32 AUDIO
    TITLE "0:"
    INDEX 01 00:42:57
  TRACK 33 AUDIO
    TITLE "4:cjc005_1373"
    INDEX 01 00:43:13
  TRACK 34 AUDIO
    TITLE "0:"
    INDEX 01 00:44:50
  TRACK 35 AUDIO
    TITLE "5:cjc005_1374"
    INDEX 01 00:45:04
  TRACK 36 AUDIO
    TITLE "0:"
    INDEX 01 00:49:02
  TRACK 37 AUDIO
    TITLE "3:cjc005_1375"
    INDEX 01 00:49:55
  TRACK 38 AUDIO
    TITLE "0:"
    INDEX 01 00:51:03
  TRACK 39 AUDIO
    TITLE "4:cjc005_1376"
    INDEX 01 00:51:34
  TRACK 40 AUDIO
    TITLE "0:"
    INDEX 01 00:52:24
  TRACK 41 AUDIO
    TITLE "5:cjc005_1377"
    INDEX 01 00:52:55
  TRACK 42 AUDIO
    TITLE "0:"
    INDEX 01 00:57:17
  TRACK 43 AUDIO
    TITLE "3:cjc005_1378"
    INDEX 01 00:57:72
  TRACK 44 AUDIO
    TITLE "0:"
    INDEX 01 00:59:18
  TRACK 45 AUDIO
    TITLE "4:cjc005_1379"
    INDEX 01 00:59:43
  TRACK 46 AUDIO
    TITLE "0:"
    INDEX 01 01:00:39
  TRACK 47 AUDIO
    TITLE "5:cjc005_1380"
    INDEX 01 01:00:62
  TRACK 48 AUDIO
    TITLE "0:"
    INDEX 01 01:04:62
  TRACK 49 AUDIO
    TITLE "3:cjc005_1381"
    INDEX 01 01:05:50
  TRACK 50 AUDIO
    TITLE "0:"
    INDEX 01 01:07:00
  TRACK 51 AUDIO
    TITLE "4:cjc005_1382"
    INDEX 01 01:07:27
  TRACK 52 AUDIO
    TITLE "0:"
    INDEX 01 01:08:35
  TRACK 53 AUDIO
    TITLE "5:cjc005_1383"
    INDEX 01 01:08:56
  TRACK 54 AUDIO
    TITLE "0:"
    INDEX 01 01:12:62
  TRACK 55 AUDIO
    TITLE "3:cjc005_1384"
    INDEX 01 01:13:44
  TRACK 56 AUDIO
    TITLE "0:"
    INDEX 01 01:14:70
  TRACK 57 AUDIO
    TITLE "4:cjc005_1385"
    INDEX 01 01:15:19
  TRACK 58 AUDIO
    TITLE "0:"
    INDEX 01 01:16:32
  TRACK 59 AUDIO
    TITLE "5:cjc005_1386"
    INDEX 01 01:16:60
  TRACK 60 AUDIO
    TITLE "0:"
    INDEX 01 01:20:36
